{
  "accessors": [
    {
      "bufferView": 2,
      "componentType": 5126,
      "count": 54,
      "max": [
        1.0,
        2.6765990257263184,
        0.8604772686958313
      ],
      "min": [
        -0.9999998807907104,
        0.6765990257263184,
        -0.8702213764190674
      ],
      "type": "VEC3"
    },
    {
      "bufferView": 2,
      "byteOffset": 648,
      "componentType": 5126,
      "count": 54,
      "max": [
        0.9999833703041077,
        1.0,
        1.0
      ],
      "min": [
        -0.9999833106994629,
        -1.0,
        -1.0
      ],
      "type": "VEC3"
    },
    {
      "bufferView": 1,
      "componentType": 5126,
      "count": 54,
      "max": [
        0.9207653403282166,
        0.5740126371383667
      ],
      "min": [
        0.034842684864997864,
        0.03762727975845337
      ],
      "type": "VEC2"
    },
    {
      "bufferView": 0,
      "componentType": 5125,
      "count": 240,
      "type": "SCALAR"
    },
    {
      "bufferView": 2,
      "byteOffset": 1296,
      "componentType": 5126,
      "count": 312,
      "max": [
        1.3663086891174316,
        3.082075595855713,
        1.2467457056045532
      ],
      "min": [
        -1.479540228843689,
        0.4312317967414856,
        -1.6294153928756714
      ],
      "type": "VEC3"
    },
    {
      "bufferView": 2,
      "byteOffset": 5040,
      "componentType": 5126,
      "count": 312,
      "max": [
        0.9914572834968567,
        0.9954662919044495,
        0.9962534308433533
      ],
      "min": [
        -0.9997771978378296,
        -0.9997719526290894,
        -0.9912191033363342
      ],
      "type": "VEC3"
    },
    {
      "bufferView": 1,
      "byteOffset": 432,
      "componentType": 5126,
      "count": 312,
      "max": [
        0.9422630071640015,
        0.9427235126495361
      ],
      "min": [
        0.6022055745124817,
        0.6028405427932739
      ],
      "type": "VEC2"
    },
    {
      "bufferView": 0,
      "byteOffset": 960,
      "componentType": 5125,
      "count": 1860,
      "type": "SCALAR"
    },
    {
      "bufferView": 2,
      "byteOffset": 8784,
      "componentType": 5126,
      "count": 332,
      "max": [
        1.2440122365951538,
        3.350750207901001,
        1.052551507949829
      ],
      "min": [
        -1.3275970220565796,
        0.3642444610595703,
        -1.6030757427215576
      ],
      "type": "VEC3"
    },
    {
      "bufferView": 2,
      "byteOffset": 12768,
      "componentType": 5126,
      "count": 332,
      "max": [
        0.9986708164215088,
        0.9940681457519531,
        0.998552143573761
      ],
      "min": [
        -0.9988211989402771,
        -0.9857186675071716,
        -0.9900861978530884
      ],
      "type": "VEC3"
    },
    {
      "bufferView": 1,
      "byteOffset": 2928,
      "componentType": 5126,
      "count": 332,
      "max": [
        0.912484347820282,
        0.958063542842865
      ],
      "min": [
        0.5911868214607239,
        0.6310898065567017
      ],
      "type": "VEC2"
    },
    {
      "bufferView": 0,
      "byteOffset": 8400,
      "componentType": 5125,
      "count": 1980,
      "type": "SCALAR"
    },
    {
      "bufferView": 2,
      "byteOffset": 16752,
      "componentType": 5126,
      "count": 132,
      "max": [
        1.3032194375991821,
        3.1824140548706055,
        1.3242309093475342
      ],
      "min": [
        -0.10419393330812454,
        1.6552071571350098,
        -1.175954818725586
      ],
      "type": "VEC3"
    },
    {
      "bufferView": 2,
      "byteOffset": 18336,
      "componentType": 5126,
      "count": 132,
      "max": [
        0.9737565517425537,
        0.9808586835861206,
        0.9664412140846252
      ],
      "min": [
        -0.9922077059745789,
        -0.9372278451919556,
        -0.9849465489387512
      ],
      "type": "VEC3"
    },
    {
      "bufferView": 1,
      "byteOffset": 5584,
      "componentType": 5126,
      "count": 132,
      "max": [
        0.877500057220459,
        0.9682689309120178
      ],
      "min": [
        0.6017873287200928,
        0.6746510863304138
      ],
      "type": "VEC2"
    },
    {
      "bufferView": 0,
      "byteOffset": 16320,
      "componentType": 5125,
      "count": 780,
      "type": "SCALAR"
    },
    {
      "bufferView": 2,
      "byteOffset": 19920,
      "componentType": 5126,
      "count": 92,
      "max": [
        0.5874032378196716,
        2.9740500450134277,
        1.342864990234375
      ],
      "min": [
        -1.1400041580200195,
        0.39925050735473633,
        -1.2038660049438477
      ],
      "type": "VEC3"
    },
    {
      "bufferView": 2,
      "byteOffset": 21024,
      "componentType": 5126,
      "count": 92,
      "max": [
        0.9921631217002869,
        0.9808343648910522,
        0.9536151885986328
      ],
      "min": [
        -0.9988101720809937,
        -0.9721134305000305,
        -0.9927839636802673
      ],
      "type": "VEC3"
    },
    {
      "bufferView": 1,
      "byteOffset": 6640,
      "componentType": 5126,
      "count": 92,
      "max": [
        0.8049742579460144,
        0.9694797992706299
      ],
      "min": [
        0.5869764089584351,
        0.5927728414535522
      ],
      "type": "VEC2"
    },
    {
      "bufferView": 0,
      "byteOffset": 19440,
      "componentType": 5125,
      "count": 540,
      "type": "SCALAR"
    },
    {
      "bufferView": 2,
      "byteOffset": 22128,
      "componentType": 5126,
      "count": 137,
      "max": [
        0.8289968967437744,
        2.8955516815185547,
        1.2619028091430664
      ],
      "min": [
        -1.4817862510681152,
        0.6406173706054688,
        -1.5737576484680176
      ],
      "type": "VEC3"
    },
    {
      "bufferView": 2,
      "byteOffset": 23772,
      "componentType": 5126,
      "count": 137,
      "max": [
        0.9828792810440063,
        0.9992585182189941,
        0.9657788276672363
      ],
      "min": [
        -0.9816625118255615,
        -0.905450165271759,
        -0.967677116394043
      ],
      "type": "VEC3"
    },
    {
      "bufferView": 1,
      "byteOffset": 7376,
      "componentType": 5126,
      "count": 137,
      "max": [
        0.9636833667755127,
        0.9678564071655273
      ],
      "min": [
        0.5869764089584351,
        0.5927728414535522
      ],
      "type": "VEC2"
    },
    {
      "bufferView": 0,
      "byteOffset": 21600,
      "componentType": 5125,
      "count": 810,
      "type": "SCALAR"
    },
    {
      "bufferView": 2,
      "byteOffset": 25416,
      "componentType": 5126,
      "count": 82,
      "max": [
        1.1146044731140137,
        2.8269271850585938,
        1.2038283348083496
      ],
      "min": [
        -1.2610752582550049,
        0.7345876693725586,
        -0.8054547309875488
      ],
      "type": "VEC3"
    },
    {
      "bufferView": 2,
      "byteOffset": 26400,
      "componentType": 5126,
      "count": 82,
      "max": [
        0.9885863065719604,
        0.9934527277946472,
        0.966995120048523
      ],
      "min": [
        -0.9810126423835754,
        -0.9973466992378235,
        -0.9786253571510315
      ],
      "type": "VEC3"
    },
    {
      "bufferView": 1,
      "byteOffset": 8472,
      "componentType": 5126,
      "count": 82,
      "max": [
        0.9636833667755127,
        0.9192848801612854
      ],
      "min": [
        0.5869764089584351,
        0.5927728414535522
      ],
      "type": "VEC2"
    },
    {
      "bufferView": 0,
      "byteOffset": 24840,
      "componentType": 5125,
      "count": 480,
      "type": "SCALAR"
    },
    {
      "bufferView": 2,
      "byteOffset": 27384,
      "componentType": 5126,
      "count": 87,
      "max": [
        1.366119384765625,
        2.8997151851654053,
        0.7803242206573486
      ],
      "min": [
        -0.3315390944480896,
        1.264115810394287,
        -0.7480025291442871
      ],
      "type": "VEC3"
    },
    {
      "bufferView": 2,
      "byteOffset": 28428,
      "componentType": 5126,
      "count": 87,
      "max": [
        0.9454445242881775,
        0.9559713006019592,
        0.957478940486908
      ],
      "min": [
        -0.9435771107673645,
        -0.9968029260635376,
        -0.9867866039276123
      ],
      "type": "VEC3"
    },
    {
      "bufferView": 1,
      "byteOffset": 9128,
      "componentType": 5126,
      "count": 87,
      "max": [
        0.9444599151611328,
        0.9327410459518433
      ],
      "min": [
        0.6059008836746216,
        0.7540103197097778
      ],
      "type": "VEC2"
    },
    {
      "bufferView": 0,
      "byteOffset": 26760,
      "componentType": 5125,
      "count": 510,
      "type": "SCALAR"
    },
    {
      "bufferView": 2,
      "byteOffset": 29472,
      "componentType": 5126,
      "count": 122,
      "max": [
        0.6343590021133423,
        3.0096261501312256,
        1.1207542419433594
      ],
      "min": [
        -1.0907535552978516,
        1.156959056854248,
        -1.083655595779419
      ],
      "type": "VEC3"
    },
    {
      "bufferView": 2,
      "byteOffset": 30936,
      "componentType": 5126,
      "count": 122,
      "max": [
        0.9688479900360107,
        0.9966784715652466,
        0.9472083449363708
      ],
      "min": [
        -0.9981061220169067,
        -0.9963939785957336,
        -0.9579383134841919
      ],
      "type": "VEC3"
    },
    {
      "bufferView": 1,
      "byteOffset": 9824,
      "componentType": 5126,
      "count": 122,
      "max": [
        0.9417634010314941,
        0.9694797992706299
      ],
      "min": [
        0.5869764089584351,
        0.5927728414535522
      ],
      "type": "VEC2"
    },
    {
      "bufferView": 0,
      "byteOffset": 28800,
      "componentType": 5125,
      "count": 720,
      "type": "SCALAR"
    },
    {
      "bufferView": 2,
      "byteOffset": 32400,
      "componentType": 5126,
      "count": 50,
      "max": [
        0.861523449420929,
        0.7915687561035156,
        0.4653496742248535
      ],
      "min": [
        0.20885135233402252,
        0.0,
        -0.5719428062438965
      ],
      "type": "VEC3"
    },
    {
      "bufferView": 2,
      "byteOffset": 33000,
      "componentType": 5126,
      "count": 50,
      "max": [
        0.9422954320907593,
        1.0,
        0.8529376983642578
      ],
      "min": [
        -0.9868921041488647,
        -1.0,
        -0.9679390788078308
      ],
      "type": "VEC3"
    },
    {
      "bufferView": 1,
      "byteOffset": 10800,
      "componentType": 5126,
      "count": 50,
      "max": [
        0.5542187094688416,
        0.9720546007156372
      ],
      "min": [
        0.034215644001960754,
        0.6338986158370972
      ],
      "type": "VEC2"
    },
    {
      "bufferView": 0,
      "byteOffset": 31680,
      "componentType": 5125,
      "count": 216,
      "type": "SCALAR"
    },
    {
      "bufferView": 2,
      "byteOffset": 33600,
      "componentType": 5126,
      "count": 50,
      "max": [
        -0.20885135233402252,
        0.7915687561035156,
        0.4653496742248535
      ],
      "min": [
        -0.861523449420929,
        -1.9456489073496638e-17,
        -0.5719428062438965
      ],
      "type": "VEC3"
    },
    {
      "bufferView": 2,
      "byteOffset": 34200,
      "componentType": 5126,
      "count": 50,
      "max": [
        0.9868921041488647,
        1.0,
        0.8529376983642578
      ],
      "min": [
        -0.9422954320907593,
        -1.0,
        -0.9679390788078308
      ],
      "type": "VEC3"
    },
    {
      "bufferView": 1,
      "byteOffset": 11200,
      "componentType": 5126,
      "count": 50,
      "max": [
        0.5542187094688416,
        0.9720546007156372
      ],
      "min": [
        0.034215644001960754,
        0.6338986158370972
      ],
      "type": "VEC2"
    },
    {
      "bufferView": 0,
      "byteOffset": 32544,
      "componentType": 5125,
      "count": 216,
      "type": "SCALAR"
    }
  ],
  "asset": {
    "extras": {
      "author": "PrufDesigner (https://sketchfab.com/PrufDesigner)",
      "license": "CC-BY-4.0 (http://creativecommons.org/licenses/by/4.0/)",
      "source": "https://sketchfab.com/3d-models/tangela-4744458a88ac4979ada265c776c929d3",
      "title": "Tangela"
    },
    "generator": "Sketchfab-12.63.0",
    "version": "2.0"
  },
  "bufferViews": [
    {
      "buffer": 0,
      "byteLength": 33408,
      "name": "floatBufferViews",
      "target": 34963
    },
    {
      "buffer": 0,
      "byteLength": 11600,
      "byteOffset": 33408,
      "byteStride": 8,
      "name": "floatBufferViews",
      "target": 34962
    },
    {
      "buffer": 0,
      "byteLength": 34800,
      "byteOffset": 45008,
      "byteStride": 12,
      "name": "floatBufferViews",
      "target": 34962
    }
  ],
  "buffers": [
    {
      "byteLength": 79808,
      "uri": "scene.bin"
    }
  ],
  "images": [
    {
      "uri": "textures/TangelaSKIN_MAT_baseColor.png"
    }
  ],
  "materials": [
    {
      "doubleSided": true,
      "name": "TangelaSKIN_MAT",
      "pbrMetallicRoughness": {
        "baseColorTexture": {
          "index": 0
        },
        "metallicFactor": 0.0,
        "roughnessFactor": 0.6
      }
    }
  ],
  "meshes": [
    {
      "name": "pSphere1_TangelaSKIN_MAT_0",
      "primitives": [
        {
          "attributes": {
            "NORMAL": 1,
            "POSITION": 0,
            "TEXCOORD_0": 2
          },
          "indices": 3,
          "material": 0,
          "mode": 4
        }
      ]
    },
    {
      "name": "pCylinder_Male_TangelaSKIN_MAT_0",
      "primitives": [
        {
          "attributes": {
            "NORMAL": 5,
            "POSITION": 4,
            "TEXCOORD_0": 6
          },
          "indices": 7,
          "material": 0,
          "mode": 4
        }
      ]
    },
    {
      "name": "pCylinder3_TangelaSKIN_MAT_0",
      "primitives": [
        {
          "attributes": {
            "NORMAL": 9,
            "POSITION": 8,
            "TEXCOORD_0": 10
          },
          "indices": 11,
          "material": 0,
          "mode": 4
        }
      ]
    },
    {
      "name": "pCylinder4_TangelaSKIN_MAT_0",
      "primitives": [
        {
          "attributes": {
            "NORMAL": 13,
            "POSITION": 12,
            "TEXCOORD_0": 14
          },
          "indices": 15,
          "material": 0,
          "mode": 4
        }
      ]
    },
    {
      "name": "pCylinder5_TangelaSKIN_MAT_0",
      "primitives": [
        {
          "attributes": {
            "NORMAL": 17,
            "POSITION": 16,
            "TEXCOORD_0": 18
          },
          "indices": 19,
          "material": 0,
          "mode": 4
        }
      ]
    },
    {
      "name": "pCylinder6_TangelaSKIN_MAT_0",
      "primitives": [
        {
          "attributes": {
            "NORMAL": 21,
            "POSITION": 20,
            "TEXCOORD_0": 22
          },
          "indices": 23,
          "material": 0,
          "mode": 4
        }
      ]
    },
    {
      "name": "pCylinder7_TangelaSKIN_MAT_0",
      "primitives": [
        {
          "attributes": {
            "NORMAL": 25,
            "POSITION": 24,
            "TEXCOORD_0": 26
          },
          "indices": 27,
          "material": 0,
          "mode": 4
        }
      ]
    },
    {
      "name": "pCylinder8_TangelaSKIN_MAT_0",
      "primitives": [
        {
          "attributes": {
            "NORMAL": 29,
            "POSITION": 28,
            "TEXCOORD_0": 30
          },
          "indices": 31,
          "material": 0,
          "mode": 4
        }
      ]
    },
    {
      "name": "pCylinder9_TangelaSKIN_MAT_0",
      "primitives": [
        {
          "attributes": {
            "NORMAL": 33,
            "POSITION": 32,
            "TEXCOORD_0": 34
          },
          "indices": 35,
          "material": 0,
          "mode": 4
        }
      ]
    },
    {
      "name": "polySurface6_TangelaSKIN_MAT_0",
      "primitives": [
        {
          "attributes": {
            "NORMAL": 37,
            "POSITION": 36,
            "TEXCOORD_0": 38
          },
          "indices": 39,
          "material": 0,
          "mode": 4
        }
      ]
    },
    {
      "name": "polySurface7_TangelaSKIN_MAT_0",
      "primitives": [
        {
          "attributes": {
            "NORMAL": 41,
            "POSITION": 40,
            "TEXCOORD_0": 42
          },
          "indices": 43,
          "material": 0,
          "mode": 4
        }
      ]
    }
  ],
  "nodes": [
    {
      "children": [
        1
      ],
      "matrix": [
        1.0,
        0.0,
        0.0,
        0.0,
        0.0,
        2.220446049250313e-16,
        -1.0,
        0.0,
        0.0,
        1.0,
        2.220446049250313e-16,
        0.0,
        0.0,
        0.0,
        0.0,
        1.0
      ],
      "name": "Sketchfab_model"
    },
    {
      "children": [
        2
      ],
      "matrix": [
        1.0,
        0.0,
        0.0,
        0.0,
        0.0,
        0.0,
        1.0,
        0.0,
        0.0,
        -1.0,
        0.0,
        0.0,
        0.0,
        0.0,
        0.0,
        1.0
      ],
      "name": "83c5ab4917154368bd45658ef1f07359.fbx"
    },
    {
      "children": [
        3,
        5,
        7,
        9,
        11,
        13,
        15,
        17,
        19,
        21,
        23
      ],
      "name": "RootNode"
    },
    {
      "children": [
        4
      ],
      "name": "pSphere1"
    },
    {
      "mesh": 0,
      "name": "pSphere1_TangelaSKIN_MAT_0"
    },
    {
      "children": [
        6
      ],
      "name": "pCylinder_Male"
    },
    {
      "mesh": 1,
      "name": "pCylinder_Male_TangelaSKIN_MAT_0"
    },
    {
      "children": [
        8
      ],
      "name": "pCylinder3"
    },
    {
      "mesh": 2,
      "name": "pCylinder3_TangelaSKIN_MAT_0"
    },
    {
      "children": [
        10
      ],
      "name": "pCylinder4"
    },
    {
      "mesh": 3,
      "name": "pCylinder4_TangelaSKIN_MAT_0"
    },
    {
      "children": [
        12
      ],
      "name": "pCylinder5"
    },
    {
      "mesh": 4,
      "name": "pCylinder5_TangelaSKIN_MAT_0"
    },
    {
      "children": [
        14
      ],
      "name": "pCylinder6"
    },
    {
      "mesh": 5,
      "name": "pCylinder6_TangelaSKIN_MAT_0"
    },
    {
      "children": [
        16
      ],
      "name": "pCylinder7"
    },
    {
      "mesh": 6,
      "name": "pCylinder7_TangelaSKIN_MAT_0"
    },
    {
      "children": [
        18
      ],
      "name": "pCylinder8"
    },
    {
      "mesh": 7,
      "name": "pCylinder8_TangelaSKIN_MAT_0"
    },
    {
      "children": [
        20
      ],
      "name": "pCylinder9"
    },
    {
      "mesh": 8,
      "name": "pCylinder9_TangelaSKIN_MAT_0"
    },
    {
      "children": [
        22
      ],
      "name": "polySurface6"
    },
    {
      "mesh": 9,
      "name": "polySurface6_TangelaSKIN_MAT_0"
    },
    {
      "children": [
        24
      ],
      "name": "polySurface7"
    },
    {
      "mesh": 10,
      "name": "polySurface7_TangelaSKIN_MAT_0"
    }
  ],
  "samplers": [
    {
      "magFilter": 9729,
      "minFilter": 9987,
      "wrapS": 10497,
      "wrapT": 10497
    }
  ],
  "scene": 0,
  "scenes": [
    {
      "name": "Sketchfab_Scene",
      "nodes": [
        0
      ]
    }
  ],
  "textures": [
    {
      "sampler": 0,
      "source": 0
    }
  ]
}
